<?xml version="1.0" standalone="no"?>
<!DOCTYPE svg PUBLIC "-//W3C//DTD SVG 20010904//EN"
 "http://www.w3.org/TR/2001/REC-SVG-20010904/DTD/svg10.dtd">
<svg version="1.0" xmlns="http://www.w3.org/2000/svg"
 width="100.000000pt" height="100.000000pt" viewBox="0 0 100.000000 100.000000"
 preserveAspectRatio="xMidYMid meet">
<metadata>
Created by potrace 1.11, written by Peter Selinger 2001-2013
</metadata>
<g transform="translate(0.000000,100.000000) scale(0.100000,-0.100000)"
fill="#000000" stroke="none">
<path d="M804 849 c-36 -13 -58 -49 -63 -102 -1 -4 -11 2 -23 14 -13 12 -48
33 -78 47 -46 22 -69 26 -145 26 -78 1 -98 -3 -149 -27 -73 -34 -146 -104
-146 -140 0 -17 14 -40 41 -65 l40 -40 -33 -23 c-18 -13 -42 -33 -53 -45 -29
-31 -56 -43 -79 -34 -30 10 -83 -15 -100 -48 -41 -79 52 -211 176 -251 76 -25
202 -6 271 42 l28 19 67 -33 c147 -73 304 -42 392 78 73 99 32 209 -70 193
-31 -5 -41 -1 -85 40 -28 25 -60 50 -70 56 -19 11 -18 13 13 39 39 33 53 62
42 90 -7 18 -4 20 29 17 29 -3 44 2 68 22 33 28 69 104 56 117 -11 10 -107 17
-129 8z m114 -17 c14 -5 -19 -71 -49 -98 -22 -20 -68 -27 -85 -14 -7 7 -18 9
-24 5 -5 -3 -10 -3 -10 2 1 14 44 40 78 47 17 4 32 11 32 16 0 10 -70 -8 -87
-22 -25 -20 -14 22 12 48 21 21 34 25 73 23 26 -1 53 -4 60 -7z m-368 -52 c66
-36 89 -105 55 -169 -21 -41 -123 -79 -139 -52 -3 5 -21 12 -40 15 -28 5 -37
14 -49 44 -27 67 -3 130 62 164 37 19 75 18 111 -2z m158 -69 c39 -38 40 -51
3 -83 -37 -34 -77 -56 -65 -36 5 7 9 18 10 23 1 6 5 23 8 39 3 15 -1 46 -8 67
-12 35 -12 37 3 30 9 -5 31 -23 49 -40z m-379 12 c-5 -14 -8 -32 -5 -40 3 -7
1 -13 -5 -13 -6 0 -7 -6 -2 -12 4 -7 8 -18 9 -24 1 -6 5 -21 9 -33 5 -16 3
-20 -9 -15 -9 3 -16 10 -16 15 0 5 -5 9 -11 9 -13 0 -32 19 -47 47 -11 19 -7
25 30 57 50 43 61 45 47 9z m133 -248 c34 -22 68 -25 68 -5 0 14 64 34 102 33
37 -2 66 -13 90 -35 88 -83 99 -90 146 -86 60 4 65 -14 20 -73 -47 -62 -104
-89 -182 -85 -63 3 -148 38 -175 70 -19 23 -34 20 -87 -16 -26 -17 -63 -37
-83 -44 -48 -17 -153 -10 -188 13 -60 38 -105 106 -89 132 4 6 25 8 49 5 41
-6 46 -4 99 45 92 84 153 96 230 46z"/>
<path d="M442 720 c-40 -38 -25 -100 29 -119 25 -9 37 -8 60 6 16 10 29 22 29
28 0 5 3 20 6 32 4 15 -2 29 -20 47 -31 32 -74 34 -104 6z m76 -32 c15 -15 -3
-48 -27 -48 -23 0 -35 28 -20 46 14 17 31 18 47 2z"/>
</g>
</svg>
